<svg width="15" height="16" viewBox="0 0 15 16" fill="none" xmlns="http://www.w3.org/2000/svg">
<path id="Vector" fill-rule="evenodd" clip-rule="evenodd" d="M6.36117 3.37268e-07H7.90712C9.25185 -1.45465e-05 10.3169 -2.20365e-05 11.1505 0.113965C12.0083 0.231264 12.7027 0.478423 13.2503 1.03534C13.4646 1.25331 13.4646 1.60671 13.2503 1.82467C13.036 2.04264 12.6885 2.04264 12.4742 1.82467C12.1646 1.50972 11.7404 1.32095 11.0043 1.22029C10.2523 1.11746 9.26107 1.11628 7.86585 1.11628H6.40244C5.00721 1.11628 4.01598 1.11746 3.26404 1.22029C2.52787 1.32095 2.10374 1.50972 1.79407 1.82467C1.48441 2.13962 1.2988 2.57098 1.19982 3.3197C1.09872 4.08447 1.09756 5.0926 1.09756 6.51163V9.48837C1.09756 10.9074 1.09872 11.9155 1.19982 12.6803C1.2988 13.429 1.48441 13.8604 1.79407 14.1753C2.10374 14.4903 2.52787 14.6791 3.26404 14.7797C4.01598 14.8825 5.00721 14.8837 6.40244 14.8837H7.86585C9.26107 14.8837 10.2523 14.8825 11.0043 14.7797C11.7404 14.6791 12.1646 14.4903 12.4742 14.1753C12.9834 13.6575 13.1377 12.8527 13.1644 10.9687C13.1688 10.6605 13.418 10.4142 13.7211 10.4187C14.0241 10.4231 14.2662 10.6766 14.2619 10.9848C14.2362 12.7913 14.1212 14.0789 13.2503 14.9647C12.7027 15.5216 12.0083 15.7687 11.1505 15.8861C10.3169 16 9.25185 16 7.90712 16H6.36117C5.01646 16 3.95136 16 3.11779 15.8861C2.25992 15.7687 1.56557 15.5216 1.01798 14.9647C0.4704 14.4077 0.227386 13.7015 0.112054 12.829C-2.15728e-05 11.9812 -1.43026e-05 10.898 3.3158e-07 9.53034V6.46964C-1.43026e-05 5.10201 -2.15728e-05 4.01875 0.112054 3.17096C0.227386 2.29846 0.4704 1.59227 1.01798 1.03534C1.56557 0.478423 2.25992 0.231264 3.11779 0.113965C3.95136 -2.20365e-05 5.01645 -1.45465e-05 6.36117 3.37268e-07ZM11.6071 4.31297C12.3833 3.52358 13.6417 3.52358 14.4179 4.31297C15.194 5.10236 15.194 6.38222 14.4179 7.17165L10.9384 10.7105C10.7491 10.9031 10.621 11.0333 10.4775 11.1471C10.3088 11.281 10.1262 11.3957 9.93307 11.4894C9.76881 11.569 9.597 11.6272 9.34295 11.7133L7.81837 12.2302C7.48178 12.3443 7.11066 12.2552 6.85976 12C6.60885 11.7448 6.52127 11.3674 6.63344 11.025L7.13144 9.50564C7.13488 9.49514 7.13824 9.48473 7.14161 9.47446C7.22627 9.21615 7.28356 9.04134 7.36178 8.87427C7.4539 8.6778 7.56673 8.49213 7.69837 8.32052C7.81024 8.17459 7.93829 8.04435 8.12766 7.85183C8.1352 7.84417 8.14281 7.83643 8.15056 7.82854L11.6071 4.31297ZM13.6418 5.1023C13.2942 4.74885 12.7308 4.74885 12.3833 5.1023L12.2502 5.23758C12.2575 5.2625 12.2658 5.289 12.2753 5.31685C12.344 5.51862 12.4747 5.7855 12.7223 6.0374C12.97 6.2893 13.2324 6.42214 13.4309 6.49215C13.4582 6.5018 13.4843 6.51023 13.5088 6.51758L13.6418 6.38229C13.9893 6.02883 13.9893 5.45576 13.6418 5.1023ZM12.6705 7.37012C12.4379 7.24584 12.1868 7.07133 11.9463 6.82672C11.7058 6.5821 11.5342 6.32667 11.412 6.0901L8.92661 8.6179C8.70637 8.84197 8.62903 8.9219 8.56376 9.00703C8.48122 9.11472 8.41039 9.23126 8.35259 9.35457C8.30693 9.45198 8.27115 9.55803 8.17266 9.85868L7.87976 10.7524L8.08646 10.9626L8.96517 10.6647C9.26078 10.5645 9.36505 10.5281 9.46083 10.4817C9.58207 10.4229 9.69666 10.3509 9.80254 10.2669C9.88625 10.2006 9.96483 10.1219 10.1851 9.8979L12.6705 7.37012ZM3.65854 5.76744C3.65854 5.45919 3.90424 5.2093 4.20732 5.2093H8.96342C9.26649 5.2093 9.5122 5.45919 9.5122 5.76744C9.5122 6.07569 9.26649 6.32558 8.96342 6.32558H4.20732C3.90424 6.32558 3.65854 6.07569 3.65854 5.76744ZM3.65854 8.74419C3.65854 8.43594 3.90424 8.18605 4.20732 8.18605H6.03659C6.33966 8.18605 6.58537 8.43594 6.58537 8.74419C6.58537 9.05243 6.33966 9.30233 6.03659 9.30233H4.20732C3.90424 9.30233 3.65854 9.05243 3.65854 8.74419ZM3.65854 11.7209C3.65854 11.4127 3.90424 11.1628 4.20732 11.1628H5.30488C5.60796 11.1628 5.85366 11.4127 5.85366 11.7209C5.85366 12.0292 5.60796 12.2791 5.30488 12.2791H4.20732C3.90424 12.2791 3.65854 12.0292 3.65854 11.7209Z" fill="white"/>
</svg>
