<svg width="15" height="12" viewBox="0 0 15 12" fill="none" xmlns="http://www.w3.org/2000/svg">
<path id="Vector (Stroke)" fill-rule="evenodd" clip-rule="evenodd" d="M15 0.857143C15 0.383756 14.6642 -2.93554e-08 14.25 -6.55671e-08L0.750001 -1.24577e-06C0.335788 -1.28199e-06 9.20125e-07 0.383755 8.78741e-07 0.857142C8.37356e-07 1.33053 0.335788 1.71428 0.750001 1.71428L14.25 1.71429C14.6642 1.71429 15 1.33053 15 0.857143ZM12.75 6C12.75 5.52661 12.4142 5.14286 12 5.14286L3 5.14286C2.58579 5.14286 2.25 5.52661 2.25 6C2.25 6.47339 2.58579 6.85714 3 6.85714L12 6.85714C12.4142 6.85714 12.75 6.47339 12.75 6ZM10.5 11.1429C10.5 10.6695 10.1642 10.2857 9.75 10.2857L5.25 10.2857C4.83579 10.2857 4.5 10.6695 4.5 11.1429C4.5 11.6162 4.83579 12 5.25 12L9.75 12C10.1642 12 10.5 11.6162 10.5 11.1429Z" fill="white"/>
</svg>
