<svg width="16" height="12" viewBox="0 0 16 12" fill="none" xmlns="http://www.w3.org/2000/svg">
<g id="Vector">
<path d="M11.7562 12H7.42576V11.696C7.57457 11.696 7.69858 11.696 7.79779 11.696C7.897 11.6863 7.97637 11.6767 8.03589 11.667C8.10534 11.6477 8.16486 11.6333 8.21447 11.6236C8.26407 11.6043 8.31367 11.5802 8.36328 11.5512C8.44265 11.503 8.50217 11.4451 8.54185 11.3775C8.59146 11.3003 8.61626 11.2231 8.61626 11.1459C8.61626 10.8757 8.50713 10.4993 8.28887 10.0167L7.57457 8.43883H3.13995L2.35124 10.3642C2.31156 10.4703 2.27684 10.5813 2.24707 10.6971C2.22723 10.8033 2.21731 10.9095 2.21731 11.0156C2.21731 11.2376 2.3066 11.4065 2.48517 11.5223C2.66375 11.6381 2.96137 11.696 3.37805 11.696V12H0V11.696C0.208338 11.6863 0.386913 11.6526 0.535726 11.5947C0.684539 11.5368 0.833352 11.4161 0.982164 11.2328C1.13098 11.0397 1.28971 10.7695 1.45837 10.4221C1.63694 10.065 1.86016 9.58246 2.12802 8.97445L5.65489 0.867726H5.98227L10.2234 10.2484C10.3623 10.5572 10.4814 10.8033 10.5806 10.9867C10.6897 11.17 10.7988 11.3148 10.908 11.4209C11.0171 11.5175 11.1362 11.585 11.2651 11.6236C11.404 11.6622 11.5677 11.6863 11.7562 11.696V12ZM7.35135 7.77292L5.38702 3.21289L3.42269 7.77292H7.35135Z" fill="white"/>
<path d="M12.5651 0H13.3634V2.56486H16V3.33125H13.3634V5.89611H12.5651V3.33125H9.94945V2.56486H12.5651V0Z" fill="white"/>
</g>
</svg>
