<svg width="13" height="14" viewBox="0 0 13 14" fill="none" xmlns="http://www.w3.org/2000/svg">
<g id="Group 11614">
<path id="Subtract" fill-rule="evenodd" clip-rule="evenodd" d="M7 3H10.8333C11.4777 3 12 3.52233 12 4.16667V11.8333C12 11.9725 11.9756 12.106 11.9309 12.2298L8.04947 8.42873L7.96387 8.35107C7.37833 7.859 6.50593 7.88487 5.95053 8.42867L2.06884 12.2291C2.02429 12.1055 2 11.9723 2 11.8333V7.33333H1V11.8333C1 13.0299 1.97005 14 3.16667 14H10.8333C12.0299 14 13 13.0299 13 11.8333V4.16667C13 2.97005 12.0299 2 10.8333 2H7V3ZM11.2203 12.9343L7.3498 9.1432C7.17307 8.9702 6.90007 8.9544 6.70587 9.096L6.65013 9.1432L2.77897 12.9341C2.90027 12.9767 3.03075 13 3.16667 13H10.8333C10.969 13 11.0993 12.9769 11.2203 12.9343ZM10.6695 5.83475C10.6695 5.00554 9.99727 4.33333 9.16807 4.33333C8.33887 4.33333 7.66667 5.00554 7.66667 5.83475C7.66667 6.66393 8.33887 7.33613 9.16807 7.33613C9.99727 7.33613 10.6695 6.66393 10.6695 5.83475ZM8.66667 5.83475C8.66667 5.55782 8.89113 5.33333 9.16807 5.33333C9.445 5.33333 9.66947 5.55782 9.66947 5.83475C9.66947 6.11167 9.445 6.33613 9.16807 6.33613C8.89113 6.33613 8.66667 6.11167 8.66667 5.83475Z" fill="white"/>
<path id="Subtract_2" fill-rule="evenodd" clip-rule="evenodd" d="M1 0C0.447715 0 0 0.447715 0 1V6C0 6.55228 0.447715 7 1 7H6C6.55228 7 7 6.55228 7 6V1C7 0.447715 6.55228 0 6 0H1ZM1.21875 0.909091V1.90838H2.76491V6H3.97798V1.90838H5.52166V0.909091H1.21875Z" fill="white"/>
</g>
</svg>
