<svg width="14" height="13" viewBox="0 0 14 13" fill="none" xmlns="http://www.w3.org/2000/svg">
<path id="K" d="M7.81934 0.449219H12.7832V0.831055C12.4622 0.85319 12.1911 0.886393 11.9697 0.930664C11.7484 0.963867 11.5381 1.03027 11.3389 1.12988C11.1396 1.22949 10.9294 1.37337 10.708 1.56152C10.4977 1.73861 10.2321 1.9821 9.91113 2.29199L6.3252 5.86133L10.7246 10.5928C11.1562 11.0576 11.5049 11.4229 11.7705 11.6885C12.0472 11.9541 12.2852 12.1589 12.4844 12.3027C12.6947 12.4466 12.8883 12.5407 13.0654 12.585C13.2425 12.6182 13.4528 12.6403 13.6963 12.6514V13H7.93555V12.6514L8.4502 12.6182C8.98145 12.6071 9.24707 12.4688 9.24707 12.2031C9.24707 12.0924 9.1862 11.932 9.06445 11.7217C8.94271 11.5114 8.77116 11.2679 8.5498 10.9912C8.33952 10.7035 8.07943 10.388 7.76953 10.0449C7.4707 9.70182 7.13867 9.34766 6.77344 8.98242L4.76465 6.99023L4.2832 7.38867V10.958C4.2832 11.3011 4.2998 11.5778 4.33301 11.7881C4.37728 11.9984 4.45475 12.1644 4.56543 12.2861C4.68717 12.4079 4.85872 12.4964 5.08008 12.5518C5.3125 12.596 5.61133 12.6292 5.97656 12.6514V13H0.647461V12.6514C1.02376 12.6292 1.32259 12.5905 1.54395 12.5352C1.7653 12.4798 1.93132 12.3857 2.04199 12.2529C2.16374 12.109 2.24121 11.9209 2.27441 11.6885C2.31868 11.445 2.34082 11.124 2.34082 10.7256V2.52441C2.34082 2.19238 2.31868 1.92122 2.27441 1.71094C2.24121 1.50065 2.16374 1.33464 2.04199 1.21289C1.92025 1.09115 1.7487 1.0026 1.52734 0.947266C1.30599 0.891927 1.0127 0.85319 0.647461 0.831055V0.449219H6.02637V0.831055C5.639 0.85319 5.3291 0.891927 5.09668 0.947266C4.87533 0.991536 4.70378 1.07454 4.58203 1.19629C4.46029 1.31803 4.37728 1.48405 4.33301 1.69434C4.2998 1.90462 4.2832 2.18132 4.2832 2.52441V6.40918L7.63672 3.35449C8.16797 2.86751 8.54427 2.47461 8.76562 2.17578C8.99805 1.87695 9.11426 1.6224 9.11426 1.41211C9.11426 1.22396 9.05339 1.08561 8.93164 0.99707C8.82096 0.908529 8.61621 0.85319 8.31738 0.831055H7.81934V0.449219Z" fill="white"/>
</svg>
