<svg width="9" height="14" viewBox="0 0 9 14" fill="none" xmlns="http://www.w3.org/2000/svg">
<path id="Vector" fill-rule="evenodd" clip-rule="evenodd" d="M1.70363 3.34426C1.99689 2.48208 2.96598 1.75 4.23027 1.75C5.79346 1.75 6.85527 2.83547 6.85527 3.9375C6.85527 5.03953 5.79346 6.125 4.23027 6.125C3.74701 6.125 3.35527 6.51674 3.35527 7V8.75C3.35527 9.23326 3.74701 9.625 4.23027 9.625C4.71353 9.625 5.10527 9.23326 5.10527 8.75V7.79468C7.0329 7.43759 8.60527 5.92427 8.60527 3.9375C8.60527 1.65679 6.53318 0 4.23027 0C2.32362 0 0.614141 1.11287 0.0468432 2.78074C-0.108767 3.23824 0.135971 3.73528 0.593473 3.89089C1.05098 4.04651 1.54802 3.80177 1.70363 3.34426ZM4.23027 14C4.95521 14 5.54277 13.4123 5.54277 12.6875C5.54277 11.9627 4.95521 11.375 4.23027 11.375C3.50542 11.375 2.91777 11.9627 2.91777 12.6875C2.91777 13.4123 3.50542 14 4.23027 14Z" fill="white"/>
</svg>
