<svg width="14" height="14" viewBox="0 0 14 14" fill="none" xmlns="http://www.w3.org/2000/svg">
<g id="Vector">
<path d="M13.5625 0H0.4375C0.204167 0 0 0.204167 0 0.4375V1.89583C0 2.12917 0.204167 2.33333 0.4375 2.33333H13.5625C13.7958 2.33333 14 2.12917 14 1.89583V0.4375C14 0.204167 13.7958 0 13.5625 0Z" fill="white"/>
<path d="M13.5625 3.5H3.35417C3.12083 3.5 2.91667 3.70417 2.91667 3.9375V4.8125C2.91667 5.04583 3.12083 5.25 3.35417 5.25H13.5625C13.7958 5.25 14 5.04583 14 4.8125V3.9375C14 3.70417 13.7958 3.5 13.5625 3.5Z" fill="white"/>
<path d="M13.5625 9.33333H3.35417C3.12083 9.33333 2.91667 9.5375 2.91667 9.77083V10.6458C2.91667 10.8792 3.12083 11.0833 3.35417 11.0833H13.5625C13.7958 11.0833 14 10.8792 14 10.6458V9.77083C14 9.5375 13.7958 9.33333 13.5625 9.33333Z" fill="white"/>
<path d="M13.5625 12.25H2.1875C1.95417 12.25 1.75 12.0458 1.75 11.8125V9.77083C1.75 9.5375 1.54583 9.33333 1.3125 9.33333H0.4375C0.204167 9.33333 0 9.5375 0 9.77083V13.5625C0 13.7958 0.204167 14 0.4375 14H13.5625C13.7958 14 14 13.7958 14 13.5625V12.6875C14 12.4542 13.7958 12.25 13.5625 12.25Z" fill="white"/>
<path d="M13.5625 6.41667H2.1875C1.95417 6.41667 1.75 6.2125 1.75 5.97917V3.9375C1.75 3.70417 1.54583 3.5 1.3125 3.5H0.4375C0.204167 3.5 0 3.70417 0 3.9375V7.72917C0 7.9625 0.204167 8.16667 0.4375 8.16667H13.5625C13.7958 8.16667 14 7.9625 14 7.72917V6.85417C14 6.62083 13.7958 6.41667 13.5625 6.41667Z" fill="white"/>
</g>
</svg>
