<svg width="16" height="14" viewBox="0 0 16 14" fill="none" xmlns="http://www.w3.org/2000/svg">
<path id="Vector (Stroke)" fill-rule="evenodd" clip-rule="evenodd" d="M0 0.777778C0 0.348223 0.34784 0 0.776923 0H8.54615C8.97524 0 9.32308 0.348223 9.32308 0.777778V3.11111C9.32308 3.54067 8.97524 3.88889 8.54615 3.88889C8.11707 3.88889 7.76923 3.54067 7.76923 3.11111V1.55556H5.43846V12.4444H6.21538C6.64447 12.4444 6.99231 12.7927 6.99231 13.2222C6.99231 13.6518 6.64447 14 6.21538 14H3.10769C2.67861 14 2.33077 13.6518 2.33077 13.2222C2.33077 12.7927 2.67861 12.4444 3.10769 12.4444H3.88462V1.55556H1.55385V3.11111C1.55385 3.54067 1.20601 3.88889 0.776923 3.88889C0.34784 3.88889 0 3.54067 0 3.11111V0.777778ZM7.76923 7C7.76923 6.57045 8.11707 6.22222 8.54615 6.22222H14.7615C15.1906 6.22222 15.5385 6.57045 15.5385 7V8.55556C15.5385 8.98511 15.1906 9.33333 14.7615 9.33333C14.3325 9.33333 13.9846 8.98511 13.9846 8.55556V7.77778H12.4308V12.4444H13.2077C13.6368 12.4444 13.9846 12.7927 13.9846 13.2222C13.9846 13.6518 13.6368 14 13.2077 14H10.1C9.67092 14 9.32308 13.6518 9.32308 13.2222C9.32308 12.7927 9.67092 12.4444 10.1 12.4444H10.8769V7.77778H9.32308V8.55556C9.32308 8.98511 8.97524 9.33333 8.54615 9.33333C8.11707 9.33333 7.76923 8.98511 7.76923 8.55556V7Z" fill="white"/>
</svg>
